v 30 70.86599731 -0.5
vn 0.01254905108 0.8180437088 -0.5750191808
v 30 71 -1.894698184e-13
vn 0.001483011059 0.996032238 -0.08898066729
v 30 70.86599731 0.5
vn 0.0508203432 0.9058905244 0.4204517007
v 30 70 1
vn 0.01254803874 0.08897198737 0.9959551096
v 30 69.5 0.8659999967
vn 0.001482515363 -0.4209944606 0.9070619941
v 30 69.13400269 0.5
vn 0.1126250476 0.181815207 0.9768617153
v 30 70 -1
vn 0.05081937835 -0.088864021 -0.9947465062
v 30 69 -1.893473442e-13
vn 0.4557973444 -0.5576568842 0.6937345266
v 30 1.519200325 18.61739922
vn 0.3892325759 0.2318232954 0.8914908767
v 30 1.3852005 18.11739922
vn 0.1050543264 -0.2644839585 -0.9586510658
v -30 71 -1.894698184e-13
vn -0.01254800707 0.9959549308 0.08897375315
v -30 70.86599731 -0.5
vn -0.001482482185 0.9070616364 -0.4209952354
v -30 70.5 -0.8659999967
vn -0.05082209408 0.5743241906 -0.8170488477
v -30 69.5 -0.8659999967
vn -0.009546830319 -0.4975945354 -0.8673571944
v -30 69.13400269 -0.5
vn -0.1052484065 0.2543099523 -0.9613788128
v -30 69 -1.893473442e-13
vn -0.4704181254 -0.5528709292 -0.6877794266
v -30 70.5 0.8659999967
vn -0.05082055181 0.4204509258 0.905890882
v -30 69.13400269 0.5
vn -0.3886264265 0.2327925116 0.891502738
v -30 1.3852005 18.11739922
vn -0.3892328143 -0.2449822128 -0.8879648447
v -30 1.519200325 18.61739922
vn -0.1050542593 0.2502774894 0.9624576569
v 11.12199974 69.375 1.082499981
vn -0.07345625758 -0.4706945121 0.8792331219
v 11.12199974 70 1.25
vn -0.2467767596 0.08622708917 0.9652285576
v 11.12199974 68.87940216 0.4830000103
vn -0.9006654024 -0.3882831335 0.1950333863
v 13.12199974 69.375 1.082499981
vn 0.5658285022 -0.5323557258 0.6296312213
v 13.12199974 68.87940216 0.4830000103
vn 0.1749761254 -0.9155021906 0.3622694016
v 13.12199974 68.87940216 -0.4829999804
vn 0.3357436657 -0.8386278152 -0.4289283752
v -11.12199974 69.375 1.082499981
vn 0.07345625758 -0.4706945121 0.8792331219
v -11.12199974 68.87940216 0.4830000103
vn 0.9006654024 -0.3882831335 0.1950333863
v -11.12199974 70 1.25
vn 0.2467767596 0.08622708917 0.9652285576
v -13.12199974 69.375 -1.082499981
vn -0.9097180367 -0.1959742904 -0.3660698831
v -13.12199974 70.625 -1.082499981
vn -0.2031868547 0.5630714297 -0.8010403514
v -13.12199974 70 -1.25
vn -0.05552608147 0.08884172887 -0.994496882
v 30 1.519200325 -18.61730003
vn 0.1050542518 0.2502761781 -0.9624580145
v 30 1.3852005 -18.11730003
vn 0.3892328143 -0.2449809909 0.8879651427
v 27.54999924 1.3852005 -18.11730003
vn -0.1050543264 -0.2644826472 0.9586514235
v 27.54999924 1.519200325 -18.61730003
vn -0.3892325759 0.2318220735 -0.8914911747
v -30 1.3852005 -18.11730003
vn -0.1050543264 -0.2644826472 0.9586514235
v -30 1.519200325 -18.61730003
vn -0.3892325759 0.2318220735 -0.8914911747
v -27.54999924 1.519200325 -18.61730003
vn 0.1050542518 0.2502761781 -0.9624580145
v -27.54999924 1.3852005 -18.11730003
vn 0.3892328143 -0.2449809909 0.8879651427
v 27.54999924 1.519200325 18.61739922
vn -0.1050542593 0.2502774894 0.9624576569
v 27.54999924 1.3852005 18.11739922
vn -0.3892328143 -0.2449822128 -0.8879648447
v -27.54999924 1.3852005 18.11739922
vn 0.1050543264 -0.2644839585 -0.9586510658
v -27.54999924 1.519200325 18.61739922
vn 0.3892325759 0.2318232954 0.8914908767
v 27.54999924 69.13400269 -0.5
vn -0.09269722551 -0.02391544171 -0.9954071045
v 30 69.13400269 -0.5
vn 0.3931564987 0.2323052287 -0.8896416426
v 27.54999924 69 -1.893473442e-13
vn -0.3763208985 -0.7471089363 -0.5479149818
v -27.54999924 69 -1.893473442e-13
vn 0.3763211966 -0.7471085787 0.5479152799
v -27.54999924 69.13400269 -0.5
vn 0.3497033119 -0.0203919597 -0.9366385341
v 30 69.5 -0.8659999967
vn 0.002187954262 -0.5046461821 -0.8633235097
v 30 70.5 -0.8659999967
vn 0.001482515363 0.4209944606 -0.9070619941
v 30 70.5 0.8659999967
vn 0.001482560532 0.5750666857 0.8181052208
v 27.54999924 69.13400269 0.5
vn -0.3497034311 -0.02039078623 0.9366385341
v -27.54999924 69.13400269 0.5
vn 0.09816050529 0.03416565806 0.9945839643
v -30 69.5 0.8659999967
vn -0.01254904456 -0.5750220418 0.8180416822
v -30 70 1
vn -0.001482981606 -0.08897889405 0.9960324168
v -30 70.86599731 0.5
vn -0.001482527936 0.8181071877 0.5750638247
v -30 70 -1
vn -0.001482981606 0.08897889405 -0.9960324168
v 11.12199974 69.375 -1.082499981
vn -0.3087755442 -0.6141031384 -0.7263160348
v 13.12199974 69.375 -1.082499981
vn 0.9097180367 -0.1959742904 -0.3660698831
v 11.12199974 68.87940216 -0.4829999804
vn -0.1722219884 -0.9182589054 -0.3565672636
v 11.12199974 70 -1.25
vn -0.4987156093 -0.07712394744 -0.863327682
v 13.12199974 70 -1.25
vn 0.05552608147 0.08884172887 -0.994496882
v 11.12199974 70.625 -1.082499981
vn -0.5947916508 0.3384293616 -0.7291697264
v 13.12199974 70.625 -1.082499981
vn 0.2031868547 0.5630714297 -0.8010403514
v 11.12199974 71.08249664 -0.625
vn -0.6328770518 0.6334220767 -0.4452449977
v 13.12199974 71.08249664 -0.625
vn 0.3833021224 0.8377839327 -0.388841331
v 11.12199974 71.25 -1.894851192e-13
vn -0.6184775233 0.7826855183 -0.06992130727
v 13.12199974 71.25 -1.894851192e-13
vn 0.5284846425 0.8455753922 0.07553958148
v 11.12199974 71.08249664 0.625
vn -0.5491038561 0.7580813169 0.3518489003
v 13.12199974 71.08249664 0.625
vn 0.6122888923 0.6468241811 0.4546655715
v 11.12199974 70.625 1.082499981
vn -0.4195284545 0.5220128894 0.7426294088
v 13.12199974 70.625 1.082499981
vn 0.6386688948 0.3239478767 0.6979683638
v 13.12199974 70 1.25
vn 0.6122831702 -0.07035022974 0.7875024676
v 12.28649998 24.31419945 0.3343999982
vn 0.7760497928 -0.6108342409 0.1569340378
v 12.28649998 24.31419945 -0.3343999982
vn 0.5880291462 -0.7746478915 -0.2326851636
v 12.75500107 25.01070023 -0.3343999982
vn 0.8583165407 -0.4885300696 -0.1569429636
v 12.75500107 25.01070023 0.3343999982
vn 0.9391705394 -0.2526165545 0.2326876074
v 12.43910027 68.87940216 -0.2329999954
vn 0.8468879461 -0.01998817548 -0.5313956141
v 11.85429955 68.87940216 -0.2329999954
vn -0.4052918255 -0.0246603433 -0.9138547182
v 11.85429955 68.87940216 0.2329999954
vn -0.8468407393 -0.0226065442 0.531365931
v 12.43910027 68.87940216 0.2329999954
vn 0.4036771953 -0.02221006155 0.9146318436
v 11.97089958 24.82279968 0.2329999954
vn -0.409055531 -0.00661787577 0.9124854803
v 12.43910027 25.03560066 0.2329999954
vn 0.8908321261 0.001643361291 0.4543296397
v 11.97089958 24.82279968 -0.2329999954
vn -0.8911826611 -0.005408932921 -0.4536124468
v 12.43910027 25.03560066 -0.2329999954
vn 0.4044196606 0.002976599382 -0.9145686626
v 12.27460003 24.47559929 0.2329999954
vn -0.695420742 -0.2151298523 0.6856450438
v 12.60099983 24.96080017 0.2329999954
vn -0.184846431 0.764081955 0.618070066
v 12.27460003 24.47559929 -0.2329999954
vn -0.7527735829 -0.3018936217 -0.5849719644
v 12.60099983 24.96080017 -0.2329999954
vn -0.1459949762 0.5827990174 -0.7993940115
v -11.12199974 69.375 -1.082499981
vn 0.3087755442 -0.6141031384 -0.7263160348
v -11.12199974 68.87940216 -0.4829999804
vn 0.1722219884 -0.9182589054 -0.3565672636
v -13.12199974 68.87940216 -0.4829999804
vn -0.3357436657 -0.8386278152 -0.4289283752
v -11.12199974 70 -1.25
vn 0.4987156093 -0.07712394744 -0.863327682
v -11.12199974 70.625 -1.082499981
vn 0.5947916508 0.3384293616 -0.7291697264
v -11.12199974 71.08249664 -0.625
vn 0.6328770518 0.6334220767 -0.4452449977
v -13.12199974 71.08249664 -0.625
vn -0.3833021224 0.8377839327 -0.388841331
v -11.12199974 71.25 -1.894851192e-13
vn 0.6184775233 0.7826855183 -0.06992130727
v -13.12199974 71.25 -1.894851192e-13
vn -0.5284846425 0.8455753922 0.07553958148
v -11.12199974 71.08249664 0.625
vn 0.5491038561 0.7580813169 0.3518489003
v -13.12199974 71.08249664 0.625
vn -0.6122888923 0.6468241811 0.4546655715
v -11.12199974 70.625 1.082499981
vn 0.4195284545 0.5220128894 0.7426294088
v -13.12199974 70.625 1.082499981
vn -0.6386688948 0.3239478767 0.6979683638
v -13.12199974 70 1.25
vn -0.6122831702 -0.07035022974 0.7875024676
v -13.12199974 69.375 1.082499981
vn -0.5658285022 -0.5323557258 0.6296312213
v -13.12199974 68.87940216 0.4830000103
vn -0.1749761254 -0.9155021906 0.3622694016
v -12.28649998 24.31419945 0.3343999982
vn -0.7760114074 -0.6108666658 0.1569976658
v -12.75500107 25.01070023 0.3343999982
vn -0.9391705394 -0.2526165545 0.2326876074
v -12.75500107 25.01070023 -0.3343999982
vn -0.8583115935 -0.4885160625 -0.157013461
v -12.28649998 24.31419945 -0.3343999982
vn -0.5878591537 -0.774739027 -0.2328112721
v -12.43910027 68.87940216 -0.2329999954
vn -0.8468879461 -0.01998817548 -0.5313956141
v -12.43910027 68.87940216 0.2329999954
vn -0.4036771953 -0.02221006155 0.9146318436
v -11.85429955 68.87940216 -0.2329999954
vn 0.4052918255 -0.0246603433 -0.9138547182
v -11.85429955 68.87940216 0.2329999954
vn 0.8468407393 -0.0226065442 0.531365931
v -12.43910027 25.03560066 0.2329999954
vn -0.8908322453 0.001643361524 0.4543294013
v -11.97089958 24.82279968 0.2329999954
vn 0.40905568 -0.006616047584 0.9124854207
v -11.97089958 24.82279968 -0.2329999954
vn 0.8911827803 -0.00540792523 -0.4536122084
v -12.43910027 25.03560066 -0.2329999954
vn -0.4044196606 0.002976599382 -0.9145686626
v -12.60099983 24.96080017 0.2329999954
vn 0.1848220378 0.7640066147 0.6181704402
v -12.27449989 24.47559929 0.2329999954
vn 0.6953628659 -0.215212211 0.685677886
v -12.27449989 24.47559929 -0.2329999954
vn 0.7527597547 -0.3018056154 -0.5850351453
v -12.60099983 24.96080017 -0.2329999954
vn 0.145997718 0.5828308463 -0.7993702888
v -1.470299959 18.07220078 2.533900023
vn -0.06529926509 -0.9976662993 0.01995028183
v -1.470299959 18.07220078 -2.466099739
vn -0.1305998862 -0.9912343621 -0.01995159872
v 1.470299959 18.07220078 -2.466099739
vn 0.06529927254 -0.9976664186 -0.01994364895
v 1.470299959 18.07220078 2.533900023
vn 0.1305999309 -0.9912346005 0.01993934624
v 4.354300022 18.64590073 -2.466099739
vn 0.2586858869 -0.9657555819 -0.01994280145
v 4.354300022 18.64590073 2.533900023
vn 0.321469605 -0.9467098117 0.01994630322
v 7.071000099 19.77120018 -2.466099739
vn 0.4421138465 -0.8967370987 -0.01994768716
v 7.071000099 19.77120018 2.533900023
vn 0.4999761581 -0.8658095002 0.01994409598
v 9.515899658 21.40480042 -2.466099739
vn 0.6085631847 -0.7932548523 -0.01994011365
v 9.515899658 21.40480042 2.533900023
vn 0.6592847109 -0.7516291142 0.01993521862
v 11.59519958 23.48410034 -2.466099739
vn 0.7516291142 -0.6592846513 -0.01993525401
v 11.59519958 23.48410034 2.533900023
vn 0.793254137 -0.6085624695 0.0199907925
v 13.22879982 25.92900085 -2.466099739
vn 0.8406315446 -0.541241467 -0.01990784705
v 13.22879982 25.92900085 2.533900023
vn 0.8670789003 -0.4977713823 0.0199458804
v -13.22879982 25.92910004 2.533900023
vn -0.8406364918 -0.541233778 0.01990756392
v -13.22879982 25.92910004 -2.466099739
vn -0.8670707345 -0.4977859855 -0.01993603259
v -11.59519958 23.48410034 -2.466099739
vn -0.7932581902 -0.6085569859 -0.01999513246
v -11.59519958 23.48410034 2.533900023
vn -0.7516241074 -0.6592901349 0.01994389109
v -9.515899658 21.4048996 -2.466099739
vn -0.6592782736 -0.7516345978 -0.01994022168
v -9.515899658 21.4048996 2.533900023
vn -0.6085703373 -0.7932493687 0.01994028129
v -7.071000099 19.77120018 -2.466099739
vn -0.4999930859 -0.8657997251 -0.01994422823
v -7.071000099 19.77120018 2.533900023
vn -0.4421229661 -0.896732688 0.01994492859
v -4.354300022 18.64590073 -2.466099739
vn -0.3214696348 -0.9467098713 -0.01994222961
v -4.354300022 18.64590073 2.533900023
vn -0.2586858571 -0.9657555819 0.01994572394
v 1.460500002 18.17169952 -2.466099739
vn -0.06527946144 0.9976660013 -0.02002838254
v -1.460500002 18.17180061 -2.466099739
vn 0.1305931062 0.9912335277 -0.0200395342
v -1.460500002 18.17180061 2.533900023
vn 0.06531329453 0.9976635575 0.0200404413
v 1.460500002 18.17169952 2.533900023
vn -0.1305960864 0.9912332296 0.02003315091
v 4.325200081 18.74159813 -2.466099739
vn -0.258694917 0.9657512903 -0.02003560774
v 4.325200081 18.74159813 2.533900023
vn -0.3214738965 0.9467065334 0.0200319346
v 7.023799896 19.8593998 -2.466099739
vn -0.4421070516 0.8967385292 -0.02003274299
v 7.023799896 19.8593998 2.533900023
vn -0.4999632239 0.865814805 0.0200368166
v 9.452500343 21.48209953 -2.466099739
vn -0.608549118 0.793263495 -0.02002453431
v 9.452500343 21.48209953 2.533900023
vn -0.6592766643 0.7516336441 0.02002886124
v 11.51790047 23.54750061 -2.466099739
vn -0.7517620325 0.6591293812 -0.0200576447
v 11.51790047 23.54750061 2.533900023
vn -0.7934122682 0.6083559394 0.02000208013
v 13.14570045 25.98460007 -2.466099739
vn -0.8121047616 0.5834261179 -0.009992342442
v 13.14570045 25.98460007 2.533900023
vn -0.8114982843 0.5829904675 0.03990773112
v -11.51790047 23.54759979 -2.466099739
vn 0.7934036851 0.608366847 -0.02001058497
v -13.14570045 25.98460007 -2.466099739
vn 0.8114982843 0.5829904675 -0.03990773112
v -13.14570045 25.98460007 2.533900023
vn 0.8121047616 0.5834261775 0.009986556135
v -11.51790047 23.54759979 2.533900023
vn 0.7517568469 0.6591351628 0.0200625062
v -9.452500343 21.48220062 -2.466099739
vn 0.6592829227 0.7516281605 -0.02002916113
v -9.452500343 21.48220062 2.533900023
vn 0.6085634828 0.7932523489 0.0200291425
v -7.023799896 19.8593998 -2.466099739
vn 0.4999856055 0.8658019304 -0.02003410831
v -7.023799896 19.8593998 2.533900023
vn 0.4421254694 0.8967294693 0.02003321052
v -4.325300217 18.74159813 -2.466099739
vn 0.3214669824 0.9467087984 -0.02003496699
v -4.325300217 18.74159813 2.533900023
vn 0.2586704493 0.9657579064 0.02003156766
# mm_gid 0
g mmGroup0
f 1//1 2//2 3//3 
f 4//4 5//5 6//6 
f 7//7 3//3 6//6 
f 8//8 9//9 10//10 
f 11//11 12//12 13//13 
f 14//14 15//15 16//16 
f 17//17 13//13 16//16 
f 18//18 19//19 20//20 
f 33//33 34//34 35//35 
f 33//33 35//35 36//36 
f 37//37 38//38 39//39 
f 37//37 39//39 40//40 
f 10//10 9//9 41//41 
f 10//10 41//41 42//42 
f 20//20 19//19 43//43 
f 20//20 43//43 44//44 
f 45//45 46//46 33//33 
f 45//45 33//33 36//36 
f 8//8 47//47 35//35 
f 8//8 35//35 34//34 
f 47//47 45//45 36//36 
f 47//47 36//36 35//35 
f 48//48 16//16 37//37 
f 48//48 37//37 40//40 
f 15//15 49//49 39//39 
f 15//15 39//39 38//38 
f 49//49 48//48 40//40 
f 49//49 40//40 39//39 
f 47//47 8//8 10//10 
f 47//47 10//10 42//42 
f 34//34 33//33 46//46 
f 34//34 46//46 8//8 
f 46//46 50//50 7//7 
f 46//46 7//7 6//6 
f 7//7 51//51 1//1 
f 7//7 1//1 3//3 
f 3//3 52//52 4//4 
f 3//3 4//4 6//6 
f 8//8 46//46 6//6 
f 8//8 6//6 9//9 
f 6//6 53//53 41//41 
f 6//6 41//41 9//9 
f 53//53 47//47 42//42 
f 53//53 42//42 41//41 
f 54//54 18//18 20//20 
f 54//54 20//20 44//44 
f 55//55 56//56 17//17 
f 55//55 17//17 16//16 
f 17//17 57//57 11//11 
f 17//17 11//11 13//13 
f 13//13 58//58 14//14 
f 13//13 14//14 16//16 
f 38//38 37//37 16//16 
f 38//38 16//16 15//15 
f 18//18 55//55 16//16 
f 18//18 16//16 19//19 
f 16//16 48//48 43//43 
f 16//16 43//43 19//19 
f 48//48 54//54 44//44 
f 48//48 44//44 43//43 
f 45//45 47//47 48//48 
f 45//45 48//48 49//49 
f 47//47 53//53 54//54 
f 47//47 54//54 48//48 
f 6//6 5//5 55//55 
f 6//6 55//55 53//53 
f 55//55 18//18 54//54 
f 55//55 54//54 53//53 
f 5//5 4//4 56//56 
f 5//5 56//56 55//55 
f 4//4 52//52 17//17 
f 4//4 17//17 56//56 
f 52//52 3//3 57//57 
f 52//52 57//57 17//17 
f 3//3 2//2 11//11 
f 3//3 11//11 57//57 
f 2//2 1//1 12//12 
f 2//2 12//12 11//11 
f 1//1 51//51 13//13 
f 1//1 13//13 12//12 
f 51//51 7//7 58//58 
f 51//51 58//58 13//13 
f 7//7 50//50 14//14 
f 7//7 14//14 58//58 
f 50//50 46//46 45//45 
f 50//50 45//45 14//14 
f 49//49 15//15 14//14 
f 49//49 14//14 45//45 
# mm_gid 1
g mmGroup1
f 21//21 22//22 23//23 
f 24//24 25//25 26//26 
f 27//27 28//28 29//29 
f 30//30 31//31 32//32 
f 59//59 60//60 26//26 
f 59//59 26//26 61//61 
f 62//62 63//63 60//60 
f 62//62 60//60 59//59 
f 64//64 65//65 63//63 
f 64//64 63//63 62//62 
f 66//66 67//67 65//65 
f 66//66 65//65 64//64 
f 68//68 69//69 67//67 
f 68//68 67//67 66//66 
f 70//70 71//71 69//69 
f 70//70 69//69 68//68 
f 72//72 73//73 71//71 
f 72//72 71//71 70//70 
f 22//22 74//74 73//73 
f 22//22 73//73 72//72 
f 21//21 24//24 74//74 
f 21//21 74//74 22//22 
f 23//23 25//25 24//24 
f 23//23 24//24 21//21 
f 59//59 61//61 23//23 
f 59//59 23//23 62//62 
f 64//64 62//62 23//23 
f 64//64 23//23 66//66 
f 68//68 66//66 23//23 
f 68//68 23//23 70//70 
f 72//72 70//70 23//23 
f 72//72 23//23 22//22 
f 60//60 63//63 65//65 
f 60//60 65//65 67//67 
f 60//60 67//67 69//69 
f 60//60 69//69 71//71 
f 60//60 71//71 73//73 
f 60//60 73//73 74//74 
f 60//60 74//74 24//24 
f 60//60 24//24 26//26 
f 75//75 76//76 77//77 
f 75//75 77//77 78//78 
f 61//61 26//26 79//79 
f 61//61 79//79 80//80 
f 23//23 61//61 80//80 
f 23//23 80//80 81//81 
f 25//25 23//23 81//81 
f 25//25 81//81 82//82 
f 26//26 25//25 82//82 
f 26//26 82//82 79//79 
f 82//82 81//81 83//83 
f 82//82 83//83 84//84 
f 81//81 80//80 85//85 
f 81//81 85//85 83//83 
f 80//80 79//79 86//86 
f 80//80 86//86 85//85 
f 79//79 82//82 84//84 
f 79//79 84//84 86//86 
f 84//84 83//83 87//87 
f 84//84 87//87 88//88 
f 83//83 85//85 89//89 
f 83//83 89//89 87//87 
f 85//85 86//86 90//90 
f 85//85 90//90 89//89 
f 86//86 84//84 88//88 
f 86//86 88//88 90//90 
f 88//88 87//87 75//75 
f 88//88 75//75 78//78 
f 87//87 89//89 76//76 
f 87//87 76//76 75//75 
f 89//89 90//90 77//77 
f 89//89 77//77 76//76 
f 90//90 88//88 78//78 
f 90//90 78//78 77//77 
f 91//91 92//92 93//93 
f 91//91 93//93 30//30 
f 94//94 91//91 30//30 
f 94//94 30//30 32//32 
f 95//95 94//94 32//32 
f 95//95 32//32 31//31 
f 96//96 95//95 31//31 
f 96//96 31//31 97//97 
f 98//98 96//96 97//97 
f 98//98 97//97 99//99 
f 100//100 98//98 99//99 
f 100//100 99//99 101//101 
f 102//102 100//100 101//101 
f 102//102 101//101 103//103 
f 29//29 102//102 103//103 
f 29//29 103//103 104//104 
f 27//27 29//29 104//104 
f 27//27 104//104 105//105 
f 28//28 27//27 105//105 
f 28//28 105//105 106//106 
f 28//28 92//92 91//91 
f 28//28 91//91 94//94 
f 28//28 94//94 95//95 
f 28//28 95//95 96//96 
f 28//28 96//96 98//98 
f 28//28 98//98 100//100 
f 28//28 100//100 102//102 
f 28//28 102//102 29//29 
f 93//93 106//106 105//105 
f 93//93 105//105 30//30 
f 30//30 105//105 104//104 
f 30//30 104//104 103//103 
f 30//30 103//103 101//101 
f 30//30 101//101 99//99 
f 30//30 99//99 97//97 
f 30//30 97//97 31//31 
f 107//107 108//108 109//109 
f 107//107 109//109 110//110 
f 93//93 111//111 112//112 
f 93//93 112//112 106//106 
f 111//111 93//93 92//92 
f 111//111 92//92 113//113 
f 113//113 92//92 28//28 
f 113//113 28//28 114//114 
f 114//114 28//28 106//106 
f 114//114 106//106 112//112 
f 112//112 115//115 116//116 
f 112//112 116//116 114//114 
f 114//114 116//116 117//117 
f 114//114 117//117 113//113 
f 113//113 117//117 118//118 
f 113//113 118//118 111//111 
f 111//111 118//118 115//115 
f 111//111 115//115 112//112 
f 115//115 119//119 120//120 
f 115//115 120//120 116//116 
f 116//116 120//120 121//121 
f 116//116 121//121 117//117 
f 117//117 121//121 122//122 
f 117//117 122//122 118//118 
f 118//118 122//122 119//119 
f 118//118 119//119 115//115 
f 119//119 108//108 107//107 
f 119//119 107//107 120//120 
f 120//120 107//107 110//110 
f 120//120 110//110 121//121 
f 121//121 110//110 109//109 
f 121//121 109//109 122//122 
f 122//122 109//109 108//108 
f 122//122 108//108 119//119 
# mm_gid 2
g mmGroup2
f 123//123 124//124 125//125 
f 123//123 125//125 126//126 
f 126//126 125//125 127//127 
f 126//126 127//127 128//128 
f 128//128 127//127 129//129 
f 128//128 129//129 130//130 
f 130//130 129//129 131//131 
f 130//130 131//131 132//132 
f 132//132 131//131 133//133 
f 132//132 133//133 134//134 
f 134//134 133//133 135//135 
f 134//134 135//135 136//136 
f 137//137 138//138 139//139 
f 137//137 139//139 140//140 
f 140//140 139//139 141//141 
f 140//140 141//141 142//142 
f 142//142 141//141 143//143 
f 142//142 143//143 144//144 
f 144//144 143//143 145//145 
f 144//144 145//145 146//146 
f 146//146 145//145 124//124 
f 146//146 124//124 123//123 
f 147//147 148//148 149//149 
f 147//147 149//149 150//150 
f 151//151 147//147 150//150 
f 151//151 150//150 152//152 
f 153//153 151//151 152//152 
f 153//153 152//152 154//154 
f 155//155 153//153 154//154 
f 155//155 154//154 156//156 
f 157//157 155//155 156//156 
f 157//157 156//156 158//158 
f 159//159 157//157 158//158 
f 159//159 158//158 160//160 
f 161//161 162//162 163//163 
f 161//161 163//163 164//164 
f 165//165 161//161 164//164 
f 165//165 164//164 166//166 
f 167//167 165//165 166//166 
f 167//167 166//166 168//168 
f 169//169 167//167 168//168 
f 169//169 168//168 170//170 
f 148//148 169//169 170//170 
f 148//148 170//170 149//149 
f 159//159 160//160 136//136 
f 159//159 136//136 135//135 
f 134//134 136//136 160//160 
f 134//134 160//160 158//158 
f 132//132 134//134 158//158 
f 132//132 158//158 156//156 
f 130//130 132//132 156//156 
f 130//130 156//156 154//154 
f 128//128 130//130 154//154 
f 128//128 154//154 152//152 
f 126//126 128//128 152//152 
f 126//126 152//152 150//150 
f 123//123 126//126 150//150 
f 123//123 150//150 149//149 
f 146//146 123//123 149//149 
f 146//146 149//149 170//170 
f 144//144 146//146 170//170 
f 144//144 170//170 168//168 
f 142//142 144//144 168//168 
f 142//142 168//168 166//166 
f 140//140 142//142 166//166 
f 140//140 166//166 164//164 
f 137//137 140//140 164//164 
f 137//137 164//164 163//163 
f 163//163 162//162 138//138 
f 163//163 138//138 137//137 
f 139//139 138//138 162//162 
f 139//139 162//162 161//161 
f 157//157 159//159 135//135 
f 157//157 135//135 133//133 
f 155//155 157//157 133//133 
f 155//155 133//133 131//131 
f 153//153 155//155 131//131 
f 153//153 131//131 129//129 
f 151//151 153//153 129//129 
f 151//151 129//129 127//127 
f 147//147 151//151 127//127 
f 147//147 127//127 125//125 
f 148//148 147//147 125//125 
f 148//148 125//125 124//124 
f 169//169 148//148 124//124 
f 169//169 124//124 145//145 
f 167//167 169//169 145//145 
f 167//167 145//145 143//143 
f 165//165 167//167 143//143 
f 165//165 143//143 141//141 
f 161//161 165//165 141//141 
f 161//161 141//141 139//139 
